<svg width="176" height="35" viewBox="0 0 176 35" fill="none" xmlns="http://www.w3.org/2000/svg">
<g clip-path="url(#clip0_177_190)">
<g filter="url(#filter0_d_177_190)">
<path d="M12.3751 7.92431C12.2314 8.0443 12.1452 9.00426 12.1452 10.0542V11.9441H16.254C20.88 11.9441 21.6271 12.1841 21.6271 13.744C21.6271 15.3639 20.88 15.5739 15.4208 15.4839L10.5936 15.3939L10.4212 14.644C10.2776 13.954 10.1339 13.894 8.2088 13.804C6.68596 13.744 6.14003 13.834 6.0251 14.134C5.9389 14.344 5.9389 17.3438 6.0251 20.7637L6.1975 26.9734L13.8405 26.8834C21.0812 26.7934 21.5409 26.7634 22.6615 26.1334C24.9314 24.8735 25.9083 22.9536 25.5635 20.3437C25.4773 19.6837 25.1612 18.7838 24.8164 18.3038C24.2705 17.4938 24.2705 17.3738 24.6728 17.0139C26.052 15.8139 26.3106 13.174 25.3049 11.0442C24.759 9.96421 24.328 9.51423 22.9775 8.82426C21.3972 7.9843 21.0524 7.92431 16.9436 7.80431C14.5301 7.74432 12.49 7.77431 12.3751 7.92431ZM21.1099 19.9537C21.857 20.6437 21.7708 22.0236 20.9375 22.5936C20.3916 22.9836 19.4146 23.0436 15.4208 22.9836L10.5649 22.8936L10.4787 21.5736C10.335 19.3537 10.1339 19.4437 15.6219 19.4437C19.8169 19.4437 20.6502 19.5337 21.1099 19.9537Z" fill="white"/>
</g>
<path d="M28.437 7.92431C28.322 8.0443 28.2358 12.3641 28.2358 17.5538V26.9434L35.9363 26.8834L43.608 26.7934L43.6942 26.0434C43.7229 25.6234 43.4643 24.7535 43.0908 24.0935L42.4299 22.8936L37.4878 22.8036L32.5458 22.7436L32.4883 15.3039L32.4021 7.89431L30.5345 7.80431C29.5001 7.74432 28.5519 7.80431 28.437 7.92431Z" fill="white"/>
<path d="M51.2509 8.04432C46.7973 9.03427 44.9009 11.7941 44.9009 17.3439C44.9009 22.1436 46.2801 24.7835 49.4407 26.1034C50.8773 26.6734 51.6244 26.7634 55.3884 26.7634C60.3305 26.7934 61.8533 26.4034 63.8072 24.6635C65.6748 23.0136 66.2495 21.0337 66.1058 16.7439C65.9909 12.9641 65.5599 11.6741 63.9508 10.0842C62.2843 8.4343 60.6465 7.95432 56.3941 7.86433C54.2678 7.80433 51.9404 7.89433 51.2509 8.04432ZM60.0431 12.5441C61.4511 13.4141 61.8533 14.524 61.8533 17.4039C61.8533 21.8136 60.7327 22.7436 55.5321 22.7436C50.3314 22.7436 49.2108 21.8136 49.2108 17.4039C49.2108 14.524 49.6131 13.4141 51.021 12.5441C51.7968 12.0341 52.4864 11.9441 55.5321 11.9441C58.5778 11.9441 59.2674 12.0341 60.0431 12.5441Z" fill="white"/>
<path d="M75.1278 8.07431C72.2546 8.58428 70.3582 9.84422 69.2376 12.0641C68.6629 13.1441 68.6055 13.744 68.6055 17.3438C68.6055 20.9737 68.6629 21.5436 69.2663 22.8336C70.0996 24.6035 71.8236 25.8634 74.1509 26.4934C75.4439 26.8534 77.1104 26.9434 80.9894 26.8834C86.8796 26.7934 86.8796 26.7934 85.6441 24.2435L84.9832 22.8936L80.2423 22.7436C74.9554 22.5636 74.036 22.2936 73.2027 20.4637C72.5419 18.9938 72.6281 15.3339 73.3464 14.104C74.2659 12.5441 75.4726 12.1841 80.5296 11.9741L84.9832 11.7941L85.0694 10.0242C85.1269 8.79427 85.0407 8.1643 84.7821 8.01431C84.2937 7.68433 77.1104 7.74433 75.1278 8.07431Z" fill="white"/>
<path d="M88.431 8.1043C88.3448 8.31429 88.316 12.6041 88.3448 17.6438L88.431 26.7934H90.5859H92.7409L92.8846 25.7134C92.9995 24.9335 93.5454 24.0335 95.0108 22.3536C96.1027 21.0937 97.1083 20.0437 97.2232 20.0437C97.3382 20.0437 98.6312 21.6036 100.097 23.4935L102.797 26.9434H105.182C107.309 26.9434 107.538 26.8834 107.538 26.3734C107.538 26.0734 105.901 23.6735 103.918 21.0937C101.361 17.7638 100.355 16.2339 100.528 15.9639C100.671 15.7539 102.137 14.014 103.774 12.1241C105.671 9.87421 106.676 8.49428 106.561 8.1943C106.447 7.83431 105.872 7.74432 104.033 7.77432H101.648L97.6255 12.3941C95.4131 14.944 93.4305 17.0439 93.2581 17.0439C92.9995 17.0439 92.8846 15.8439 92.8271 12.4541L92.7409 7.89431L90.6434 7.80432C89.1493 7.74432 88.5172 7.83431 88.431 8.1043Z" fill="white"/>
<path d="M110.498 8.07429C110.211 8.37427 110.125 10.6242 110.125 17.2238C110.125 22.0536 110.211 26.1934 110.297 26.4634C110.441 26.8234 110.9 26.9433 112.452 26.9433C114.751 26.9433 114.693 27.0633 114.779 23.0435L114.865 20.4937L118.744 20.3137C123.054 20.0737 124.089 19.8337 125.554 18.6638C126.991 17.5238 127.45 16.1739 127.307 13.534C127.192 10.8341 126.675 10.0242 124.347 8.79425C122.623 7.89429 122.623 7.89429 116.733 7.8043C112.193 7.7143 110.757 7.7743 110.498 8.07429ZM122.422 12.7241C123.255 13.324 123.313 15.0939 122.508 15.5439C122.192 15.6939 120.325 15.8439 118.371 15.8439C114.434 15.8439 114.434 15.8439 114.434 13.924C114.434 12.3941 114.779 12.2441 118.457 12.2441C120.986 12.2441 121.934 12.3641 122.422 12.7241Z" fill="white"/>
<path d="M134.317 7.9843C133.886 8.28429 125.64 25.8934 125.64 26.5234C125.64 26.8534 126.129 26.9434 128.025 26.9434L130.381 26.9134L131.214 24.9935L132.048 23.0436H136.559H141.098L141.874 24.9935L142.679 26.9434H144.949C146.414 26.9434 147.19 26.8234 147.19 26.6134C147.19 25.9834 139.116 8.49428 138.627 8.1043C138.11 7.71432 134.892 7.62432 134.317 7.9843ZM137.651 16.2039C138.168 17.4038 138.57 18.4838 138.57 18.6038C138.57 18.7538 137.622 18.8438 136.444 18.8438C135.266 18.8438 134.231 18.7538 134.174 18.6038C133.973 18.2438 135.984 14.044 136.358 14.044C136.587 14.044 137.162 15.034 137.651 16.2039Z" fill="white"/>
<path d="M149.69 8.19429C149.259 8.64427 149.202 9.66422 149.202 17.2238C149.202 22.5636 149.317 26.0134 149.489 26.3734C149.776 26.9134 150.15 26.9434 156.327 26.9434C163.511 26.9434 165.148 26.6734 167.16 25.2334C167.936 24.6635 168.596 23.7935 169.171 22.5936C169.976 20.9437 170.033 20.5537 170.033 17.6438C170.033 13.624 169.487 11.8541 167.734 10.1742C165.723 8.25429 164.459 7.95431 156.787 7.80431C150.897 7.71432 150.092 7.74432 149.69 8.19429ZM163.741 12.7241C165.378 13.984 165.723 14.794 165.723 17.3438C165.723 19.8937 165.378 20.7037 163.741 21.9636C163.051 22.5336 162.476 22.5936 158.655 22.6836C155.609 22.7736 154.23 22.6836 153.914 22.4436C153.368 21.9336 153.31 12.8741 153.885 12.2741C154.144 12.0041 155.351 11.9441 158.597 12.0041C162.476 12.0941 163.051 12.1541 163.741 12.7241Z" fill="white"/>
<g filter="url(#filter1_d_177_190)">
<path d="M5.93893 8.46427C5.85273 8.67425 5.82399 9.51421 5.88146 10.3242L5.96766 11.7941L8.20883 11.8841L10.4213 11.9741V9.99419V8.04429H8.26629C6.68598 8.04429 6.05386 8.16428 5.93893 8.46427Z" fill="white"/>
</g>
</g>
<defs>
<filter id="filter0_d_177_190" x="1.96045" y="7.77533" width="27.9536" height="27.198" filterUnits="userSpaceOnUse" color-interpolation-filters="sRGB">
<feFlood flood-opacity="0" result="BackgroundImageFix"/>
<feColorMatrix in="SourceAlpha" type="matrix" values="0 0 0 0 0 0 0 0 0 0 0 0 0 0 0 0 0 0 127 0" result="hardAlpha"/>
<feOffset dy="4"/>
<feGaussianBlur stdDeviation="2"/>
<feComposite in2="hardAlpha" operator="out"/>
<feColorMatrix type="matrix" values="0 0 0 0 0 0 0 0 0 0 0 0 0 0 0 0 0 0 0.25 0"/>
<feBlend mode="normal" in2="BackgroundImageFix" result="effect1_dropShadow_177_190"/>
<feBlend mode="normal" in="SourceGraphic" in2="effect1_dropShadow_177_190" result="shape"/>
</filter>
<filter id="filter1_d_177_190" x="1.85156" y="8.04428" width="12.5698" height="11.9298" filterUnits="userSpaceOnUse" color-interpolation-filters="sRGB">
<feFlood flood-opacity="0" result="BackgroundImageFix"/>
<feColorMatrix in="SourceAlpha" type="matrix" values="0 0 0 0 0 0 0 0 0 0 0 0 0 0 0 0 0 0 127 0" result="hardAlpha"/>
<feOffset dy="4"/>
<feGaussianBlur stdDeviation="2"/>
<feComposite in2="hardAlpha" operator="out"/>
<feColorMatrix type="matrix" values="0 0 0 0 0 0 0 0 0 0 0 0 0 0 0 0 0 0 0.25 0"/>
<feBlend mode="normal" in2="BackgroundImageFix" result="effect1_dropShadow_177_190"/>
<feBlend mode="normal" in="SourceGraphic" in2="effect1_dropShadow_177_190" result="shape"/>
</filter>
<clipPath id="clip0_177_190">
<rect width="176" height="34.6877" fill="white"/>
</clipPath>
</defs>
</svg>
