<svg width="544" height="104" viewBox="0 0 544 104" fill="none" xmlns="http://www.w3.org/2000/svg">
<path d="M0.047808 36.7378C0.047808 36.0466 0.107911 35.2352 0.228118 34.3036C0.348325 33.372 0.573712 32.3202 0.90428 31.1482C1.23485 29.9462 1.7307 28.6089 2.39184 27.1363L7.93637 29.0747C7.6058 30.0063 7.32031 30.8627 7.0799 31.6441C6.83948 32.3954 6.65917 33.1016 6.53897 33.7627C6.41876 34.3938 6.35866 35.0249 6.35866 35.656C6.35866 36.6477 6.56902 37.5342 6.98974 38.3155C7.44052 39.1269 8.08663 39.8031 8.92807 40.344C9.76952 40.915 10.7913 41.3508 11.9933 41.6513C13.2255 41.9518 14.6379 42.1021 16.2306 42.1021C17.8835 42.1021 19.356 42.0269 20.6482 41.8767C21.9705 41.7264 23.0824 41.501 23.984 41.2005C24.9156 40.9 25.6218 40.5093 26.1026 40.0285C26.5834 39.5777 26.8238 39.0518 26.8238 38.4508C26.8238 38.1803 26.7187 37.9249 26.5083 37.6845C26.328 37.444 26.0124 37.1886 25.5617 36.9181C25.1409 36.6477 24.57 36.3622 23.8487 36.0617C23.1575 35.7612 22.3161 35.4306 21.3244 35.07L22.8119 28.714C24.1042 29.255 25.3212 29.7358 26.4632 30.1565C27.6352 30.5472 28.7471 30.8778 29.7989 31.1482C30.8508 31.3886 31.8425 31.584 32.7741 31.7342C33.7057 31.8544 34.5772 31.9145 35.3886 31.9145C36.5305 31.9145 37.3419 32.2151 37.8227 32.8161C38.3036 33.3871 38.544 34.1083 38.544 34.9798C38.544 35.9114 38.2284 36.6928 37.5974 37.3238C36.9663 37.9249 36.0797 38.2254 34.9378 38.2254C34.6974 38.2254 34.457 38.2254 34.2165 38.2254C34.0062 38.2254 33.7808 38.2254 33.5404 38.2254C33.33 38.2254 33.1046 38.2254 32.8642 38.2254C32.9243 38.5259 32.9544 38.7813 32.9544 38.9917C32.9544 39.2321 32.9544 39.4575 32.9544 39.6679C32.9544 40.6596 32.6088 41.6663 31.9176 42.6881C31.2565 43.7098 30.2197 44.6564 28.8072 45.5279C27.3948 46.3994 25.5917 47.0906 23.3979 47.6015C21.2342 48.1424 18.6498 48.4129 15.6446 48.4129C12.399 48.4129 9.60423 47.9922 7.2602 47.1507C4.94623 46.3393 3.15815 45.0621 1.89598 43.3191C0.663867 41.6062 0.047808 39.4124 0.047808 36.7378ZM20.0622 58.8709C19.1907 58.8709 18.4394 58.5553 17.8083 57.9242C17.2073 57.3232 16.9068 56.602 16.9068 55.7605C16.9068 54.889 17.2073 54.1377 17.8083 53.5067C18.4394 52.8756 19.1907 52.56 20.0622 52.56C20.9037 52.56 21.6249 52.8756 22.2259 53.5067C22.827 54.1377 23.1275 54.889 23.1275 55.7605C23.1275 56.602 22.827 57.3232 22.2259 57.9242C21.6249 58.5553 20.9037 58.8709 20.0622 58.8709ZM12.2638 58.8709C11.3923 58.8709 10.641 58.5553 10.0099 57.9242C9.4089 57.3232 9.10838 56.602 9.10838 55.7605C9.10838 54.889 9.4089 54.1377 10.0099 53.5067C10.641 52.8756 11.3923 52.56 12.2638 52.56C13.1053 52.56 13.8265 52.8756 14.4275 53.5067C15.0286 54.1377 15.3291 54.889 15.3291 55.7605C15.3291 56.602 15.0286 57.3232 14.4275 57.9242C13.8265 58.5553 13.1053 58.8709 12.2638 58.8709ZM34.929 38.2254L35.3797 31.9596C37.874 31.9596 39.8725 31.9446 41.3751 31.9145C42.9077 31.8845 44.0947 31.8244 44.9362 31.7342C45.8077 31.614 46.4538 31.4788 46.8745 31.3285C47.2952 31.1482 47.6558 30.9529 47.9564 30.7425C48.317 30.4721 48.6175 30.1114 48.8579 29.6607C49.1284 29.1798 49.3387 28.5488 49.489 27.7674C49.6393 26.9861 49.7144 26.0094 49.7144 24.8374C49.7144 23.3648 49.5792 22.1327 49.3087 21.141C49.0683 20.1193 48.7077 19.3529 48.2268 18.8421C47.7761 18.3312 47.2201 18.0758 46.559 18.0758C46.0781 18.0758 45.6274 18.241 45.2066 18.5716C44.7859 18.8721 44.4403 19.2928 44.1699 19.8338C43.8994 20.3747 43.7642 20.9908 43.7642 21.682C43.7642 22.0726 43.8693 22.4182 44.0797 22.7187C44.2901 23.0192 44.6206 23.2446 45.0714 23.3949C45.5222 23.5452 46.0932 23.6203 46.7844 23.6203C47.4455 23.6203 48.1367 23.5452 48.8579 23.3949C49.6092 23.2146 50.3004 22.9742 50.9315 22.6737L51.1118 28.0379C50.631 28.3684 50.075 28.669 49.4439 28.9394C48.8128 29.2099 48.1367 29.4203 47.4154 29.5705C46.7242 29.6907 46.018 29.7508 45.2968 29.7508C43.7041 29.7508 42.3217 29.5405 41.1497 29.1197C40.0077 28.669 39.1212 27.9477 38.4901 26.956C37.859 25.9643 37.5435 24.612 37.5435 22.899C37.5435 21.5768 37.7689 20.2695 38.2196 18.9773C38.6704 17.655 39.3165 16.468 40.158 15.4162C40.9994 14.3343 41.9911 13.4779 43.1331 12.8468C44.275 12.1856 45.5372 11.8551 46.9196 11.8551C48.9631 11.8551 50.646 12.4561 51.9683 13.6582C53.3206 14.8302 54.3123 16.4229 54.9434 18.4364C55.6045 20.4198 55.9351 22.6286 55.9351 25.0628C55.9351 27.1964 55.6195 29.0596 54.9885 30.6524C54.3574 32.2151 53.6061 33.4472 52.7346 34.3487C52.0133 35.1 51.1869 35.7311 50.2553 36.242C49.3237 36.7529 48.1818 37.1586 46.8294 37.4591C45.5072 37.7295 43.8693 37.9249 41.916 38.0451C39.9927 38.1653 37.6637 38.2254 34.929 38.2254ZM46.8294 7.66285C45.8978 7.66285 45.1015 7.34731 44.4403 6.71623C43.8092 6.08514 43.4937 5.3038 43.4937 4.3722C43.4937 3.4406 43.8092 2.64423 44.4403 1.98309C45.1015 1.32196 45.8978 0.991387 46.8294 0.991387C47.731 0.991387 48.4973 1.32196 49.1284 1.98309C49.7895 2.64423 50.1201 3.4406 50.1201 4.3722C50.1201 5.3038 49.7895 6.08514 49.1284 6.71623C48.4973 7.34731 47.731 7.66285 46.8294 7.66285ZM93.9322 38.2254C91.7986 38.2254 89.9504 37.9549 88.3877 37.414C86.8551 36.843 85.668 35.9415 84.8266 34.7093C83.9851 33.4472 83.5043 31.7643 83.3841 29.6607L82.5727 11.4944H88.9286L89.6949 27.4519C89.755 28.684 89.9504 29.6306 90.281 30.2918C90.6416 30.9228 91.1524 31.3586 91.8136 31.599C92.4747 31.8094 93.3312 31.9145 94.383 31.9145C95.525 31.9145 96.3364 32.2151 96.8172 32.8161C97.298 33.3871 97.5384 34.1083 97.5384 34.9798C97.5384 35.9114 97.2229 36.6928 96.5918 37.3238C95.9908 37.9249 95.1042 38.2254 93.9322 38.2254ZM85.683 34.0332C83.6696 34.484 81.7313 34.6943 79.8681 34.6643C78.0049 34.6042 76.337 34.2736 74.8645 33.6726C73.3919 33.0415 72.2199 32.1399 71.3484 30.9679C70.507 29.7959 70.0862 28.3083 70.0862 26.5052C70.0862 24.9125 70.4318 23.47 71.123 22.1778C71.8443 20.8555 72.836 19.6985 74.0981 18.7068C75.3904 17.7151 76.8929 16.8737 78.6059 16.1825C80.3188 15.4913 82.182 14.9654 84.1955 14.6048L84.8266 21.0058C83.5344 21.0659 82.3623 21.2462 81.3105 21.5467C80.2888 21.8172 79.4023 22.1778 78.651 22.6286C77.9297 23.0794 77.3738 23.5902 76.9831 24.1612C76.5924 24.7021 76.3971 25.2882 76.3971 25.9192C76.3971 26.4301 76.5774 26.8508 76.938 27.1814C77.2986 27.512 77.7795 27.7824 78.3805 27.9928C78.9815 28.1731 79.6727 28.2783 80.4541 28.3083C81.2354 28.3384 82.0318 28.2933 82.8432 28.1731C83.6846 28.0529 84.511 27.8576 85.3224 27.5871L85.683 34.0332ZM85.8183 6.85146C84.9468 6.85146 84.1955 6.55094 83.5644 5.94991C82.9634 5.31882 82.6629 4.58256 82.6629 3.74111C82.6629 2.86962 82.9634 2.11832 83.5644 1.48724C84.1955 0.856154 84.9468 0.540613 85.8183 0.540613C86.6597 0.540613 87.381 0.856154 87.982 1.48724C88.583 2.11832 88.8836 2.86962 88.8836 3.74111C88.8836 4.58256 88.583 5.31882 87.982 5.94991C87.381 6.55094 86.6597 6.85146 85.8183 6.85146ZM78.0199 6.80638C77.1484 6.80638 76.3971 6.50587 75.766 5.90483C75.165 5.27375 74.8645 4.53748 74.8645 3.69604C74.8645 2.82454 75.165 2.07325 75.766 1.44216C76.3971 0.811077 77.1484 0.495536 78.0199 0.495536C78.8613 0.495536 79.5826 0.811077 80.1836 1.44216C80.7846 2.07325 81.0851 2.82454 81.0851 3.69604C81.0851 4.53748 80.7846 5.27375 80.1836 5.90483C79.5826 6.50587 78.8613 6.80638 78.0199 6.80638ZM93.9171 38.2254L94.3679 31.9145C95.5098 31.9145 96.4114 31.8094 97.0725 31.599C97.7637 31.3886 98.3046 30.9679 98.6953 30.3368C99.116 29.6757 99.4616 28.714 99.7321 27.4519C100.033 26.1897 100.333 24.5068 100.634 22.4032L106.539 23.3949C106.479 23.8457 106.389 24.3716 106.268 24.9726C106.178 25.5736 106.088 26.1897 105.998 26.8208C105.938 27.4218 105.908 27.9928 105.908 28.5337C105.908 29.255 106.058 29.871 106.358 30.3819C106.689 30.8627 107.26 31.2384 108.071 31.5088C108.913 31.7793 110.115 31.9145 111.678 31.9145C112.82 31.9145 113.631 32.2151 114.112 32.8161C114.593 33.3871 114.833 34.1083 114.833 34.9798C114.833 35.9114 114.517 36.6928 113.886 37.3238C113.285 37.9249 112.399 38.2254 111.227 38.2254C109.153 38.2254 107.47 38.0301 106.178 37.6394C104.886 37.2487 103.924 36.5876 103.293 35.656C102.662 34.7244 102.256 33.4472 102.076 31.8244H104.24C103.699 33.2669 103.068 34.4239 102.347 35.2954C101.625 36.1368 100.814 36.7679 99.9124 37.1886C99.0108 37.6093 98.0492 37.8798 97.0274 38C96.0357 38.1503 94.9989 38.2254 93.9171 38.2254ZM98.3798 16.8587L97.6134 13.7032C98.6652 13.5229 99.4466 13.3727 99.9575 13.2525C100.498 13.1323 101.069 12.997 101.67 12.8468L101.22 13.9737C100.438 13.7032 99.687 13.1773 98.9658 12.396C98.2746 11.5846 97.929 10.668 97.929 9.64626C97.929 8.5644 98.1694 7.69291 98.6502 7.03177C99.131 6.37063 99.7471 5.88981 100.498 5.58929C101.25 5.28877 102.031 5.13852 102.842 5.13852C103.293 5.13852 103.714 5.16857 104.105 5.22867C104.525 5.28877 104.901 5.37893 105.232 5.49914L104.871 8.74471C104.57 8.68461 104.27 8.62451 103.969 8.5644C103.669 8.5043 103.338 8.47425 102.978 8.47425C102.587 8.47425 102.226 8.60948 101.896 8.87995C101.595 9.12036 101.445 9.42088 101.445 9.7815C101.445 10.2924 101.625 10.7431 101.986 11.1338C102.347 11.5245 102.767 11.84 103.248 12.0804C103.759 12.2908 104.18 12.411 104.51 12.4411L102.031 12.7115C102.842 12.5012 103.609 12.2908 104.33 12.0804C105.051 11.84 105.727 11.5996 106.358 11.3592L107.26 14.3794C106.509 14.6499 105.622 14.9504 104.6 15.2809C103.609 15.5815 102.572 15.867 101.49 16.1374C100.438 16.4079 99.4015 16.6483 98.3798 16.8587ZM111.217 38.2254L111.668 31.9145C112.66 31.9145 113.471 31.8394 114.102 31.6892C114.733 31.5088 115.244 31.1332 115.635 30.5622C116.056 29.9612 116.416 29.0747 116.717 27.9026C117.047 26.7006 117.408 25.0778 117.799 23.0343L123.659 24.1161C123.569 24.5669 123.463 25.0928 123.343 25.6938C123.223 26.2949 123.118 26.9109 123.028 27.542C122.937 28.1431 122.892 28.684 122.892 29.1648C122.892 30.0063 123.163 30.6824 123.704 31.1933C124.245 31.6741 125.266 31.9145 126.769 31.9145C127.52 31.9145 128.166 31.8394 128.707 31.6892C129.278 31.5088 129.759 31.1332 130.15 30.5622C130.571 29.9612 130.931 29.0446 131.232 27.8125C131.562 26.5503 131.878 24.8524 132.178 22.7187L138.129 23.6654C138.008 24.3565 137.888 25.0928 137.768 25.8742C137.648 26.6555 137.543 27.3767 137.452 28.0379C137.362 28.699 137.317 29.2399 137.317 29.6607C137.317 30.0513 137.422 30.427 137.633 30.7876C137.873 31.1182 138.294 31.3886 138.895 31.599C139.526 31.8094 140.413 31.9145 141.554 31.9145C142.366 31.9145 143.057 31.8094 143.628 31.599C144.229 31.3886 144.68 31.043 144.98 30.5622C145.311 30.0814 145.476 29.4503 145.476 28.669C145.476 27.557 145.221 26.0995 144.71 24.2964C144.199 22.4933 143.598 20.6001 142.907 18.6167L149.263 16.7234C149.744 18.0156 150.164 19.398 150.525 20.8706C150.916 22.313 151.216 23.7255 151.426 25.1078C151.667 26.4602 151.787 27.6472 151.787 28.669C151.787 30.2016 151.547 31.5689 151.066 32.771C150.585 33.943 149.909 34.9347 149.037 35.7461C148.166 36.5575 147.129 37.1736 145.927 37.5943C144.725 38.015 143.403 38.2254 141.96 38.2254C140.217 38.2254 138.79 38.0601 137.678 37.7295C136.566 37.3689 135.709 36.7829 135.108 35.9715C134.537 35.1301 134.162 33.9881 133.981 32.5456H135.514C134.883 34.3187 134.177 35.6109 133.395 36.4223C132.614 37.2036 131.683 37.6995 130.601 37.9098C129.549 38.1202 128.227 38.2254 126.634 38.2254C125.642 38.2254 124.62 38.1202 123.569 37.9098C122.547 37.6694 121.63 37.1285 120.819 36.2871C120.007 35.4456 119.406 34.1384 119.016 32.3653L121.45 32.2752C120.819 34.0482 119.992 35.3555 118.971 36.1969C117.979 37.0383 116.837 37.5943 115.545 37.8648C114.253 38.1052 112.81 38.2254 111.217 38.2254ZM134.793 10.3224C134.042 10.3224 133.38 10.0369 132.809 9.46595C132.269 8.89497 131.998 8.21881 131.998 7.43747C131.998 6.65612 132.269 5.99499 132.809 5.45406C133.38 4.91313 134.042 4.64266 134.793 4.64266C135.574 4.64266 136.235 4.91313 136.776 5.45406C137.317 5.99499 137.588 6.65612 137.588 7.43747C137.588 8.21881 137.317 8.89497 136.776 9.46595C136.235 10.0369 135.574 10.3224 134.793 10.3224ZM131.187 16.2727C130.435 16.2727 129.774 15.9872 129.203 15.4162C128.662 14.8452 128.392 14.169 128.392 13.3877C128.392 12.6064 128.662 11.9452 129.203 11.4043C129.774 10.8634 130.435 10.5929 131.187 10.5929C131.968 10.5929 132.629 10.8634 133.17 11.4043C133.711 11.9452 133.981 12.6064 133.981 13.3877C133.981 14.169 133.711 14.8452 133.17 15.4162C132.629 15.9872 131.968 16.2727 131.187 16.2727ZM138.174 16.2727C137.422 16.2727 136.761 15.9872 136.19 15.4162C135.649 14.8452 135.379 14.169 135.379 13.3877C135.379 12.6064 135.649 11.9452 136.19 11.4043C136.761 10.8634 137.422 10.5929 138.174 10.5929C138.955 10.5929 139.616 10.8634 140.157 11.4043C140.698 11.9452 140.968 12.6064 140.968 13.3877C140.968 14.169 140.698 14.8452 140.157 15.4162C139.616 15.9872 138.955 16.2727 138.174 16.2727ZM168.339 38.2254C165.545 38.2254 163.381 37.9399 161.848 37.3689C160.346 36.7979 159.294 35.9114 158.693 34.7093C158.092 33.4772 157.746 31.9296 157.656 30.0664L156.709 5.00328H163.02L163.967 27.0462C164.027 28.4285 164.177 29.4653 164.418 30.1565C164.658 30.8477 165.109 31.3135 165.77 31.5539C166.461 31.7943 167.468 31.9145 168.79 31.9145C169.932 31.9145 170.743 32.2151 171.224 32.8161C171.735 33.3871 171.991 34.1083 171.991 34.9798C171.991 35.9114 171.675 36.6928 171.044 37.3238C170.413 37.9249 169.511 38.2254 168.339 38.2254ZM168.401 38.2254L168.851 31.9145C169.993 31.9145 170.895 31.8094 171.556 31.599C172.247 31.3886 172.788 30.9679 173.179 30.3368C173.6 29.6757 173.945 28.714 174.216 27.4519C174.516 26.1897 174.817 24.5068 175.117 22.4032L181.022 23.3949C180.962 23.8457 180.872 24.3716 180.752 24.9726C180.662 25.5736 180.571 26.1897 180.481 26.8208C180.421 27.4218 180.391 27.9928 180.391 28.5337C180.391 29.255 180.541 29.871 180.842 30.3819C181.173 30.8627 181.744 31.2384 182.555 31.5088C183.396 31.7793 184.598 31.9145 186.161 31.9145C187.303 31.9145 188.114 32.2151 188.595 32.8161C189.076 33.3871 189.317 34.1083 189.317 34.9798C189.317 35.9114 189.001 36.6928 188.37 37.3238C187.769 37.9249 186.882 38.2254 185.71 38.2254C183.637 38.2254 181.954 38.0301 180.662 37.6394C179.369 37.2487 178.408 36.5876 177.777 35.656C177.146 34.7244 176.74 33.4472 176.56 31.8244H178.723C178.182 33.2669 177.551 34.4239 176.83 35.2954C176.109 36.1368 175.297 36.7679 174.396 37.1886C173.494 37.6093 172.533 37.8798 171.511 38C170.519 38.1503 169.482 38.2254 168.401 38.2254ZM177.596 17.8053C176.665 17.8053 175.868 17.4897 175.207 16.8587C174.576 16.2276 174.261 15.4462 174.261 14.5146C174.261 13.583 174.576 12.7867 175.207 12.1255C175.868 11.4644 176.665 11.1338 177.596 11.1338C178.498 11.1338 179.264 11.4644 179.895 12.1255C180.556 12.7867 180.887 13.583 180.887 14.5146C180.887 15.4462 180.556 16.2276 179.895 16.8587C179.264 17.4897 178.498 17.8053 177.596 17.8053ZM185.701 38.2254L186.152 31.9145C187.534 31.9145 188.526 31.7793 189.127 31.5088C189.728 31.2083 190.088 30.6674 190.209 29.8861C190.329 29.0747 190.359 27.9026 190.299 26.37L189.487 5.00328H195.843L196.745 26.8208C196.805 28.5638 196.73 30.1415 196.519 31.5539C196.339 32.9363 195.873 34.1233 195.122 35.115C194.401 36.1067 193.274 36.8731 191.741 37.414C190.239 37.9549 188.225 38.2254 185.701 38.2254ZM202.689 38L201.743 5.00328H208.054L209 38H202.689ZM237.286 55.7605C235.302 55.7605 233.439 55.5502 231.696 55.1294C229.953 54.7087 228.42 54.0626 227.098 53.1911C225.806 52.3196 224.784 51.1927 224.033 49.8103C223.312 48.4279 222.951 46.7901 222.951 44.8969C222.951 42.9435 223.357 41.2155 224.168 39.7129C224.979 38.2404 226.016 36.9482 227.278 35.8363C228.541 34.6943 229.878 33.6726 231.29 32.771C232.733 31.8394 234.085 30.9529 235.347 30.1114C236.609 29.27 237.646 28.4135 238.458 27.542C239.269 26.6405 239.675 25.6488 239.675 24.5669C239.675 24.1762 239.57 23.8156 239.359 23.4851C239.179 23.1244 238.863 22.8389 238.413 22.6286C237.992 22.3882 237.391 22.268 236.609 22.268C236.099 22.268 235.573 22.3281 235.032 22.4483C234.491 22.5384 233.965 22.6737 233.454 22.854C232.943 23.0042 232.462 23.1996 232.012 23.44C232.793 24.0711 233.559 24.7773 234.311 25.5586C235.092 26.3099 235.798 27.0462 236.429 27.7674C237.09 28.4586 237.601 29.0596 237.962 29.5705C238.653 29.9311 239.404 30.2617 240.216 30.5622C241.027 30.8327 241.884 31.0731 242.785 31.2835C243.717 31.4938 244.678 31.6591 245.67 31.7793C246.662 31.8695 247.684 31.9145 248.735 31.9145C249.877 31.9145 250.689 32.2151 251.17 32.8161C251.65 33.3871 251.891 34.1083 251.891 34.9798C251.891 35.9114 251.575 36.6928 250.944 37.3238C250.313 37.9249 249.427 38.2254 248.285 38.2254C245.79 38.2254 243.657 38.0451 241.884 37.6845C240.141 37.3238 238.563 36.7829 237.15 36.0617C235.768 35.3104 234.341 34.3938 232.868 33.3119C232.507 32.6809 231.982 31.9897 231.29 31.2384C230.599 30.457 229.893 29.7208 229.172 29.0296C228.481 28.3384 227.895 27.7975 227.414 27.4068C227.324 27.3166 227.173 27.0161 226.963 26.5052C226.753 25.9643 226.557 25.3933 226.377 24.7923C226.227 24.1913 226.152 23.7705 226.152 23.5301C226.152 22.9291 226.437 22.2529 227.008 21.5016C227.579 20.7203 228.375 19.984 229.397 19.2928C230.449 18.5716 231.666 17.9856 233.048 17.5348C234.431 17.054 235.933 16.8136 237.556 16.8136C240.501 16.8136 242.62 17.4447 243.912 18.7068C245.234 19.939 245.895 21.5317 245.895 23.4851C245.895 25.2881 245.49 26.8959 244.678 28.3083C243.897 29.7208 242.875 31.013 241.613 32.185C240.351 33.357 239.014 34.4389 237.601 35.4306C236.219 36.4223 234.897 37.3839 233.634 38.3155C232.372 39.2772 231.335 40.2388 230.524 41.2005C229.743 42.1922 229.352 43.259 229.352 44.401C229.352 45.3627 229.592 46.159 230.073 46.7901C230.584 47.4512 231.23 47.9771 232.012 48.3678C232.793 48.7585 233.649 49.029 234.581 49.1792C235.543 49.3595 236.474 49.4497 237.376 49.4497C238.307 49.4497 239.269 49.3746 240.261 49.2243C241.283 49.074 242.334 48.8336 243.416 48.5031C244.528 48.2025 245.67 47.8119 246.842 47.331L248.735 52.7403C247.593 53.3414 246.376 53.8673 245.084 54.318C243.792 54.7989 242.485 55.1595 241.162 55.3999C239.84 55.6403 238.548 55.7605 237.286 55.7605ZM248.299 38.2254L248.749 31.9145C250.553 31.9145 251.935 31.8244 252.897 31.6441C253.858 31.4638 254.519 31.1332 254.88 30.6524C255.271 30.1415 255.466 29.4203 255.466 28.4887C255.466 27.6472 255.346 26.6405 255.105 25.4685C254.895 24.2964 254.609 23.0794 254.249 21.8172C253.918 20.555 253.558 19.398 253.167 18.3462L259.388 16.6333C259.778 17.655 260.154 18.8421 260.515 20.1944C260.875 21.5467 261.176 22.9441 261.416 24.3866C261.657 25.799 261.777 27.1664 261.777 28.4887C261.777 30.5322 261.446 32.2 260.785 33.4923C260.124 34.7544 259.192 35.7311 257.99 36.4223C256.818 37.1135 255.406 37.5943 253.753 37.8648C252.1 38.1052 250.282 38.2254 248.299 38.2254ZM259.433 48.6834C258.561 48.6834 257.81 48.3678 257.179 47.7367C256.578 47.1357 256.277 46.4145 256.277 45.573C256.277 44.7015 256.578 43.9502 257.179 43.3191C257.81 42.6881 258.561 42.3725 259.433 42.3725C260.274 42.3725 260.995 42.6881 261.597 43.3191C262.198 43.9502 262.498 44.7015 262.498 45.573C262.498 46.4145 262.198 47.1357 261.597 47.7367C260.995 48.3678 260.274 48.6834 259.433 48.6834ZM251.634 48.6834C250.763 48.6834 250.012 48.3678 249.381 47.7367C248.779 47.1357 248.479 46.4145 248.479 45.573C248.479 44.7015 248.779 43.9502 249.381 43.3191C250.012 42.6881 250.763 42.3725 251.634 42.3725C252.476 42.3725 253.197 42.6881 253.798 43.3191C254.399 43.9502 254.7 44.7015 254.7 45.573C254.7 46.4145 254.399 47.1357 253.798 47.7367C253.197 48.3678 252.476 48.6834 251.634 48.6834ZM265.22 48.3678L262.921 42.5979C265.505 41.6964 267.594 40.7046 269.186 39.6228C270.809 38.5409 271.996 37.3839 272.748 36.1518C273.529 34.9197 273.92 33.6425 273.92 32.3202C273.92 31.4788 273.799 30.6073 273.559 29.7057C273.319 28.7741 272.973 27.7975 272.522 26.7757C272.101 25.754 271.591 24.6871 270.99 23.5752L276.895 20.7353C277.946 22.7488 278.758 24.6721 279.329 26.5052C279.93 28.3384 280.23 30.0513 280.23 31.6441C280.23 33.1166 280.035 34.529 279.644 35.8814C279.284 37.2337 278.713 38.4959 277.931 39.6679C277.18 40.8699 276.203 41.9969 275.001 43.0487C273.799 44.1005 272.387 45.0621 270.764 45.9336C269.141 46.8352 267.293 47.6466 265.22 48.3678ZM297.233 38.2254C294.438 38.2254 292.274 37.9399 290.742 37.3689C289.239 36.7979 288.187 35.9114 287.586 34.7093C286.985 33.4772 286.639 31.9296 286.549 30.0664L285.603 5.00328H291.914L292.86 27.0462C292.92 28.4285 293.071 29.4653 293.311 30.1565C293.551 30.8477 294.002 31.3135 294.663 31.5539C295.354 31.7943 296.361 31.9145 297.683 31.9145C298.825 31.9145 299.637 32.2151 300.118 32.8161C300.629 33.3871 300.884 34.1083 300.884 34.9798C300.884 35.9114 300.568 36.6928 299.937 37.3238C299.306 37.9249 298.405 38.2254 297.233 38.2254ZM297.294 38.2254L297.745 31.9145C298.736 31.9145 299.548 31.8394 300.179 31.6892C300.81 31.5088 301.321 31.1332 301.712 30.5622C302.132 29.9612 302.493 29.0747 302.793 27.9026C303.124 26.7006 303.485 25.0778 303.875 23.0343L309.735 24.1161C309.615 24.7773 309.45 25.6037 309.24 26.5954C309.059 27.5871 308.969 28.4436 308.969 29.1648C308.969 29.7358 309.074 30.2316 309.285 30.6524C309.525 31.043 309.916 31.3586 310.457 31.599C311.028 31.8094 311.809 31.9145 312.801 31.9145C313.582 31.9145 314.243 31.8394 314.784 31.6892C315.355 31.5088 315.836 31.1332 316.227 30.5622C316.647 29.9612 317.008 29.0446 317.308 27.8125C317.639 26.5503 317.954 24.8524 318.255 22.7187L324.205 23.6654C324.085 24.3565 323.965 25.0928 323.845 25.8742C323.724 26.6555 323.619 27.3767 323.529 28.0379C323.439 28.699 323.394 29.2399 323.394 29.6607C323.394 30.0513 323.499 30.427 323.709 30.7876C323.95 31.1182 324.371 31.3886 324.972 31.599C325.603 31.8094 326.474 31.9145 327.586 31.9145C328.938 31.9145 329.93 31.629 330.561 31.0581C331.222 30.457 331.553 29.5555 331.553 28.3534C331.553 27.6622 331.538 26.926 331.508 26.1446C331.478 25.3332 331.418 24.4317 331.327 23.44C331.267 22.4182 331.147 21.2612 330.967 19.969L336.782 19.5182C336.992 22.1027 337.233 24.2063 337.503 25.8291C337.774 27.4519 338.134 28.714 338.585 29.6156C339.066 30.4871 339.697 31.0881 340.478 31.4187C341.29 31.7493 342.341 31.9145 343.634 31.9145C344.776 31.9145 345.587 32.2151 346.068 32.8161C346.579 33.3871 346.834 34.1083 346.834 34.9798C346.834 35.9114 346.519 36.6928 345.888 37.3238C345.286 37.9249 344.385 38.2254 343.183 38.2254C342.371 38.2254 341.53 38.1503 340.659 38C339.787 37.8798 338.946 37.6244 338.134 37.2337C337.323 36.813 336.602 36.2119 335.97 35.4306C335.339 34.6492 334.844 33.6125 334.483 32.3202L335.294 32.5907C334.874 34.0933 334.303 35.2503 333.581 36.0617C332.86 36.8731 331.974 37.444 330.922 37.7746C329.87 38.0751 328.608 38.2254 327.135 38.2254C325.783 38.2254 324.581 38.0451 323.529 37.6845C322.477 37.3238 321.636 36.7378 321.005 35.9264C320.404 35.085 320.088 33.9581 320.058 32.5456H321.591C320.99 34.2285 320.299 35.4757 319.517 36.2871C318.736 37.0985 317.789 37.6244 316.677 37.8648C315.565 38.1052 314.168 38.2254 312.485 38.2254C311.463 38.2254 310.457 38.1202 309.465 37.9098C308.473 37.6694 307.587 37.1435 306.805 36.3321C306.024 35.4907 305.453 34.1684 305.092 32.3653L307.527 32.2752C306.895 34.0482 306.069 35.3555 305.047 36.1969C304.056 37.0383 302.914 37.5943 301.621 37.8648C300.329 38.1052 298.887 38.2254 297.294 38.2254ZM320.419 10.3224C319.667 10.3224 319.006 10.0369 318.435 9.46595C317.894 8.89497 317.624 8.21881 317.624 7.43747C317.624 6.65612 317.894 5.99499 318.435 5.45406C319.006 4.91313 319.667 4.64266 320.419 4.64266C321.2 4.64266 321.861 4.91313 322.402 5.45406C322.943 5.99499 323.214 6.65612 323.214 7.43747C323.214 8.21881 322.943 8.89497 322.402 9.46595C321.861 10.0369 321.2 10.3224 320.419 10.3224ZM316.813 16.2727C316.061 16.2727 315.4 15.9872 314.829 15.4162C314.288 14.8452 314.018 14.169 314.018 13.3877C314.018 12.6064 314.288 11.9452 314.829 11.4043C315.4 10.8634 316.061 10.5929 316.813 10.5929C317.594 10.5929 318.255 10.8634 318.796 11.4043C319.337 11.9452 319.607 12.6064 319.607 13.3877C319.607 14.169 319.337 14.8452 318.796 15.4162C318.255 15.9872 317.594 16.2727 316.813 16.2727ZM323.8 16.2727C323.048 16.2727 322.387 15.9872 321.816 15.4162C321.275 14.8452 321.005 14.169 321.005 13.3877C321.005 12.6064 321.275 11.9452 321.816 11.4043C322.387 10.8634 323.048 10.5929 323.8 10.5929C324.581 10.5929 325.242 10.8634 325.783 11.4043C326.324 11.9452 326.594 12.6064 326.594 13.3877C326.594 14.169 326.324 14.8452 325.783 15.4162C325.242 15.9872 324.581 16.2727 323.8 16.2727ZM343.208 38.2254L343.659 31.9145C344.41 31.9145 344.981 31.7643 345.372 31.4638C345.762 31.1632 346.153 30.6373 346.544 29.8861C346.934 29.1348 347.475 28.113 348.166 26.8208C348.918 25.3783 349.699 24.1762 350.51 23.2146C351.322 22.2229 352.133 21.4415 352.945 20.8706C353.786 20.2695 354.612 19.8488 355.424 19.6084C356.265 19.3379 357.092 19.2027 357.903 19.2027C359.015 19.2027 360.052 19.4431 361.013 19.9239C362.005 20.3747 362.952 21.1711 363.853 22.313C364.755 23.4249 365.611 24.9576 366.423 26.9109C366.994 28.2633 367.565 29.3 368.136 30.0213C368.707 30.7425 369.293 31.2384 369.894 31.5088C370.525 31.7793 371.156 31.9145 371.787 31.9145C372.929 31.9145 373.74 32.2151 374.221 32.8161C374.702 33.3871 374.942 34.1083 374.942 34.9798C374.942 35.9114 374.627 36.6928 373.996 37.3238C373.365 37.9249 372.478 38.2254 371.336 38.2254C369.864 38.2254 368.526 37.985 367.324 37.5041C366.122 37.0233 365.176 36.3021 364.484 35.3404L365.792 34.3487C365.521 34.9798 365.116 35.6409 364.575 36.3321C364.064 37.0233 363.388 37.6093 362.546 38.0902C361.735 38.571 360.758 38.8114 359.616 38.8114C358.865 38.8114 357.978 38.6611 356.956 38.3606C355.965 38.0902 354.928 37.6244 353.846 36.9632C352.794 36.272 351.818 35.3404 350.916 34.1684C350.345 35.2202 349.714 36.0466 349.023 36.6477C348.332 37.2187 347.52 37.6244 346.589 37.8648C345.657 38.1052 344.53 38.2254 343.208 38.2254ZM353.531 28.8493C353.831 29.3 354.192 29.7508 354.612 30.2016C355.033 30.6524 355.499 31.0581 356.01 31.4187C356.521 31.7493 357.062 32.0197 357.633 32.2301C358.234 32.4404 358.82 32.5456 359.391 32.5456C359.992 32.5456 360.488 32.3202 360.878 31.8695C361.269 31.3886 361.284 30.6824 360.923 29.7508C360.773 29.3601 360.563 28.9244 360.292 28.4436C360.052 27.9327 359.766 27.4519 359.436 27.0011C359.135 26.5503 358.79 26.1747 358.399 25.8742C358.038 25.5736 357.663 25.4234 357.272 25.4234C356.881 25.4234 356.476 25.5436 356.055 25.784C355.634 26.0244 355.213 26.4001 354.793 26.9109C354.372 27.3918 353.951 28.0379 353.531 28.8493ZM371.337 38.2254L371.788 31.9145C373.17 31.9145 374.162 31.7793 374.763 31.5088C375.364 31.2083 375.725 30.6674 375.845 29.8861C375.965 29.0747 375.995 27.9026 375.935 26.37L375.124 5.00328H381.48L382.381 26.8208C382.441 28.5638 382.366 30.1415 382.156 31.5539C381.976 32.9363 381.51 34.1233 380.758 35.115C380.037 36.1067 378.91 36.8731 377.378 37.414C375.875 37.9549 373.862 38.2254 371.337 38.2254ZM388.326 38L387.379 5.00328H393.69L394.637 38H388.326ZM424.996 55.7605C422.982 55.7605 421.014 55.5201 419.091 55.0393C417.197 54.5585 415.484 53.7921 413.952 52.7403C412.419 51.7186 411.202 50.3963 410.3 48.7735C409.399 47.1507 408.948 45.1974 408.948 42.9134C408.948 40.4492 409.444 38.1953 410.436 36.1518C411.427 34.0783 412.825 32.2451 414.628 30.6524C416.431 29.0596 418.565 27.7374 421.029 26.6856C423.523 25.6037 426.243 24.8374 429.188 24.3866L430.675 30.3368C428.031 30.8177 425.732 31.4487 423.779 32.2301C421.855 33.0114 420.263 33.928 419 34.9798C417.738 36.0316 416.792 37.1586 416.16 38.3606C415.559 39.5927 415.259 40.885 415.259 42.2373C415.259 43.3191 415.454 44.2658 415.845 45.0772C416.266 45.8886 416.822 46.5647 417.513 47.1057C418.204 47.6766 418.97 48.1274 419.812 48.458C420.653 48.8186 421.525 49.074 422.426 49.2243C423.328 49.3746 424.184 49.4497 424.996 49.4497C427.069 49.4497 428.993 49.2543 430.766 48.8637C432.569 48.473 434.146 47.9922 435.499 47.4212L437.302 53.2362C436.581 53.5968 435.559 53.9725 434.237 54.3631C432.944 54.7538 431.487 55.0844 429.864 55.3548C428.271 55.6253 426.649 55.7605 424.996 55.7605ZM416.025 30.7876C414.973 30.3669 413.997 29.7658 413.095 28.9845C412.224 28.2032 411.517 27.2415 410.977 26.0995C410.466 24.9275 410.21 23.5902 410.21 22.0876C410.21 20.1944 410.706 18.5566 411.698 17.1742C412.69 15.7918 414.012 14.725 415.665 13.9737C417.317 13.2224 419.121 12.8468 421.074 12.8468C422.036 12.8468 422.922 12.9069 423.733 13.0271C424.575 13.1473 425.431 13.3276 426.303 13.568L425.311 19.5633C424.68 19.4131 424.034 19.2928 423.373 19.2027C422.712 19.1125 422.126 19.0675 421.615 19.0675C420.563 19.0675 419.646 19.2177 418.865 19.5182C418.114 19.8187 417.528 20.2545 417.107 20.8255C416.716 21.3664 416.521 22.0125 416.521 22.7638C416.521 23.3648 416.701 23.9358 417.062 24.4768C417.453 25.0177 417.949 25.4985 418.55 25.9192C419.151 26.3099 419.812 26.6405 420.533 26.9109C421.254 27.1514 421.96 27.2866 422.652 27.3166L416.025 30.7876ZM442.756 48.4129L440.457 42.8233C442.05 42.2824 443.507 41.6513 444.83 40.93C446.182 40.2088 447.354 39.4124 448.346 38.5409C449.337 37.6694 450.104 36.7228 450.645 35.701C451.186 34.6492 451.456 33.5223 451.456 32.3202C451.456 31.0581 451.171 29.6757 450.6 28.1731C450.029 26.6705 449.337 25.1379 448.526 23.5752L454.431 20.7353C454.972 21.6669 455.438 22.6737 455.829 23.7555C456.249 24.8073 456.595 25.754 456.865 26.5954C457.136 27.4368 457.316 28.0078 457.406 28.3083C457.827 29.7508 458.398 30.7125 459.119 31.1933C459.871 31.6741 461.073 31.9145 462.726 31.9145C463.867 31.9145 464.679 32.2151 465.16 32.8161C465.671 33.3871 465.926 34.1083 465.926 34.9798C465.926 35.9114 465.61 36.6928 464.979 37.3238C464.348 37.9249 463.447 38.2254 462.275 38.2254C461.043 38.2254 459.961 38.0451 459.029 37.6845C458.098 37.3238 457.346 36.7979 456.775 36.1067C456.234 35.4156 455.889 34.6042 455.738 33.6726L457.406 34.6192C457.226 36.2119 456.7 37.7145 455.829 39.1269C454.987 40.5694 453.89 41.8917 452.538 43.0938C451.186 44.2958 449.668 45.3476 447.985 46.2492C446.302 47.1507 444.559 47.872 442.756 48.4129ZM479.583 14.4043V11.2489L490.221 8.09344V11.339L479.583 14.4043ZM462.329 38.2254L462.779 31.9145C463.771 31.9145 464.582 31.8394 465.214 31.6892C465.845 31.5088 466.356 31.1332 466.746 30.5622C467.167 29.9612 467.528 29.0747 467.828 27.9026C468.159 26.7006 468.519 25.0778 468.91 23.0343L474.77 24.1161C474.65 24.7773 474.485 25.6037 474.274 26.5954C474.094 27.5871 474.004 28.4436 474.004 29.1648C474.004 29.7358 474.109 30.2316 474.319 30.6524C474.56 31.043 474.95 31.3586 475.491 31.599C476.062 31.8094 476.844 31.9145 477.835 31.9145C478.617 31.9145 479.278 31.8394 479.819 31.6892C480.39 31.5088 480.87 31.1332 481.261 30.5622C481.682 29.9612 482.042 29.0446 482.343 27.8125C482.674 26.5503 482.989 24.8524 483.29 22.7187L489.24 23.6654C489.12 24.3565 488.999 25.0928 488.879 25.8742C488.759 26.6555 488.654 27.3767 488.564 28.0379C488.474 28.699 488.428 29.2399 488.428 29.6607C488.428 30.0513 488.534 30.427 488.744 30.7876C488.984 31.1182 489.405 31.3886 490.006 31.599C490.637 31.8094 491.509 31.9145 492.621 31.9145C493.973 31.9145 494.965 31.629 495.596 31.0581C496.257 30.457 496.588 29.5555 496.588 28.3534C496.588 27.6622 496.572 26.926 496.542 26.1446C496.512 25.3332 496.452 24.4317 496.362 23.44C496.302 22.4182 496.182 21.2612 496.001 19.969L501.816 19.5182C502.027 22.1027 502.267 24.2063 502.538 25.8291C502.808 27.4519 503.169 28.714 503.62 29.6156C504.1 30.4871 504.731 31.0881 505.513 31.4187C506.324 31.7493 507.376 31.9145 508.668 31.9145C509.81 31.9145 510.622 32.2151 511.102 32.8161C511.613 33.3871 511.869 34.1083 511.869 34.9798C511.869 35.9114 511.553 36.6928 510.922 37.3238C510.321 37.9249 509.42 38.2254 508.217 38.2254C507.406 38.2254 506.565 38.1503 505.693 38C504.822 37.8798 503.98 37.6244 503.169 37.2337C502.357 36.813 501.636 36.2119 501.005 35.4306C500.374 34.6492 499.878 33.6125 499.518 32.3202L500.329 32.5907C499.908 34.0933 499.337 35.2503 498.616 36.0617C497.895 36.8731 497.008 37.444 495.956 37.7746C494.905 38.0751 493.642 38.2254 492.17 38.2254C490.818 38.2254 489.616 38.0451 488.564 37.6845C487.512 37.3238 486.67 36.7378 486.039 35.9264C485.438 35.085 485.123 33.9581 485.093 32.5456H486.625C486.024 34.2285 485.333 35.4757 484.552 36.2871C483.77 37.0985 482.824 37.6244 481.712 37.8648C480.6 38.1052 479.203 38.2254 477.52 38.2254C476.498 38.2254 475.491 38.1202 474.5 37.9098C473.508 37.6694 472.621 37.1435 471.84 36.3321C471.059 35.4907 470.488 34.1684 470.127 32.3653L472.561 32.2752C471.93 34.0482 471.104 35.3555 470.082 36.1969C469.09 37.0383 467.948 37.5943 466.656 37.8648C465.364 38.1052 463.921 38.2254 462.329 38.2254ZM508.242 38.2254L508.693 31.9145C510.016 31.9145 511.052 31.8244 511.804 31.6441C512.585 31.4638 513.141 31.1332 513.471 30.6524C513.802 30.1415 513.967 29.4203 513.967 28.4887C513.967 27.6472 513.847 26.6405 513.607 25.4685C513.396 24.2964 513.111 23.0794 512.75 21.8172C512.39 20.555 512.029 19.398 511.668 18.3462L517.889 16.6333C518.25 17.655 518.61 18.8421 518.971 20.1944C519.332 21.5467 519.632 22.9441 519.872 24.3866C520.143 25.799 520.278 27.1664 520.278 28.4887C520.278 30.1415 520.068 31.5389 519.647 32.6809C519.226 33.7928 518.64 34.7244 517.889 35.4757C517.168 36.1969 516.296 36.7679 515.275 37.1886C514.283 37.5793 513.186 37.8497 511.984 38C510.782 38.1503 509.535 38.2254 508.242 38.2254ZM514.734 12.8918C513.802 12.8918 513.006 12.5763 512.345 11.9452C511.713 11.3141 511.398 10.5328 511.398 9.60118C511.398 8.66958 511.713 7.87322 512.345 7.21208C513.006 6.55094 513.802 6.22037 514.734 6.22037C515.635 6.22037 516.402 6.55094 517.033 7.21208C517.694 7.87322 518.024 8.66958 518.024 9.60118C518.024 10.5328 517.694 11.3141 517.033 11.9452C516.402 12.5763 515.635 12.8918 514.734 12.8918ZM525.119 48.3678L523.811 42.057C525.945 41.7865 527.808 41.4559 529.401 41.0653C530.994 40.7046 532.331 40.1938 533.413 39.5326C534.495 38.8715 535.306 37.9699 535.847 36.828C536.388 35.656 536.659 34.1534 536.659 32.3202C536.659 31.6591 536.598 30.998 536.478 30.3368C536.358 29.6456 536.178 29.0146 535.937 28.4436C535.697 27.8726 535.381 27.4068 534.991 27.0462C534.63 26.6856 534.194 26.5052 533.683 26.5052C533.143 26.5052 532.662 26.7006 532.241 27.0912C531.82 27.4519 531.49 27.9177 531.249 28.4887C531.009 29.0296 530.889 29.5855 530.889 30.1565C530.889 30.5772 530.994 30.9379 531.204 31.2384C531.415 31.5088 531.73 31.7192 532.151 31.8695C532.572 31.9897 533.097 32.0498 533.729 32.0498C534.45 32.0498 535.186 31.9746 535.937 31.8244C536.719 31.6441 537.425 31.4037 538.056 31.1031L538.236 36.0166C537.515 36.5876 536.689 37.0985 535.757 37.5492C534.825 37.9699 533.698 38.1803 532.376 38.1803C531.294 38.1803 530.288 38.0601 529.356 37.8197C528.424 37.5492 527.598 37.1435 526.877 36.6026C526.186 36.0617 525.645 35.3705 525.254 34.529C524.863 33.6575 524.668 32.6208 524.668 31.4187C524.668 29.9462 524.908 28.5187 525.389 27.1363C525.87 25.754 526.531 24.5218 527.373 23.44C528.244 22.3281 529.236 21.4566 530.348 20.8255C531.49 20.1643 532.692 19.8338 533.954 19.8338C535.457 19.8338 536.764 20.2094 537.876 20.9607C539.018 21.712 539.964 22.7037 540.716 23.9358C541.467 25.1379 542.038 26.4451 542.428 27.8576C542.819 29.27 543.014 30.6223 543.014 31.9145C543.014 35.3104 542.293 38.1953 540.851 40.5694C539.408 42.9435 537.35 44.7766 534.675 46.0689C532.001 47.3911 528.815 48.1575 525.119 48.3678ZM228.253 91.7378C228.253 90.686 228.388 89.3788 228.658 87.8161C228.959 86.2234 229.605 84.3301 230.597 82.1363L236.141 84.0747C235.63 85.4871 235.24 86.7042 234.969 87.7259C234.699 88.7176 234.563 89.6943 234.563 90.656C234.563 92.0083 234.864 93.1653 235.465 94.1269C236.096 95.0886 237.013 95.8249 238.215 96.3357C239.447 96.8466 240.949 97.1021 242.722 97.1021C244.525 97.1021 246.028 96.9067 247.23 96.516C248.432 96.1254 249.379 95.5694 250.07 94.8482C250.761 94.157 251.257 93.3456 251.558 92.414C251.858 91.4824 252.008 90.4757 252.008 89.3938C252.008 88.5524 251.903 87.6057 251.693 86.5539C251.513 85.5021 251.242 84.3601 250.881 83.128C250.521 81.8659 250.115 80.5436 249.664 79.1612L255.975 77.5384C256.276 78.6804 256.516 79.6571 256.696 80.4685C256.907 81.2799 257.087 81.956 257.237 82.4969C257.388 83.0078 257.508 83.4285 257.598 83.7591C257.898 84.6607 258.304 85.3368 258.815 85.7876C259.326 86.2384 259.987 86.5389 260.798 86.6892C261.64 86.8394 262.647 86.9145 263.819 86.9145C264.961 86.9145 265.772 87.2151 266.253 87.8161C266.734 88.3871 266.974 89.1083 266.974 89.9798C266.974 90.9114 266.659 91.6928 266.027 92.3238C265.396 92.9249 264.51 93.2254 263.368 93.2254C262.346 93.2254 261.324 93.0902 260.303 92.8197C259.311 92.5192 258.454 92.0383 257.733 91.3772C257.012 90.7161 256.546 89.8296 256.336 88.7176L258.004 90.5207C257.944 92.5643 257.538 94.3824 256.787 95.9751C256.035 97.5679 254.983 98.9202 253.631 100.032C252.309 101.144 250.701 101.985 248.808 102.556C246.945 103.127 244.856 103.413 242.542 103.413C240.529 103.413 238.65 103.188 236.907 102.737C235.194 102.316 233.677 101.625 232.355 100.663C231.062 99.7316 230.056 98.5295 229.334 97.057C228.613 95.5844 228.253 93.8114 228.253 91.7378ZM242.948 74.6084C242.016 74.6084 241.22 74.2928 240.559 73.6618C239.928 73.0307 239.612 72.2493 239.612 71.3177C239.612 70.3861 239.928 69.5898 240.559 68.9286C241.22 68.2675 242.016 67.9369 242.948 67.9369C243.849 67.9369 244.616 68.2675 245.247 68.9286C245.908 69.5898 246.238 70.3861 246.238 71.3177C246.238 72.2493 245.908 73.0307 245.247 73.6618C244.616 74.2928 243.849 74.6084 242.948 74.6084ZM263.354 93.2254L263.805 86.9145C264.886 86.9145 265.818 86.8094 266.599 86.599C267.381 86.3886 268.042 85.9679 268.583 85.3368C269.124 84.6757 269.574 83.714 269.935 82.4519C270.326 81.1897 270.671 79.5068 270.972 77.4032L276.877 78.3949C276.817 78.8457 276.727 79.3716 276.607 79.9726C276.516 80.5736 276.426 81.1897 276.336 81.8208C276.276 82.4218 276.246 82.9928 276.246 83.5337C276.246 84.0747 276.351 84.5555 276.561 84.9762C276.772 85.3969 277.102 85.7576 277.553 86.0581C278.034 86.3285 278.65 86.5389 279.401 86.6892C280.183 86.8394 281.129 86.9145 282.241 86.9145C283.383 86.9145 284.195 87.2151 284.675 87.8161C285.156 88.3871 285.397 89.1083 285.397 89.9798C285.397 90.9114 285.081 91.6928 284.45 92.3238C283.849 92.9249 282.962 93.2254 281.79 93.2254C280.438 93.2254 279.206 93.1202 278.094 92.9098C277.012 92.6995 276.066 92.3539 275.254 91.8731C274.473 91.3622 273.827 90.701 273.316 89.8897C272.835 89.0482 272.535 88.0265 272.414 86.8244H274.578C274.037 88.2669 273.346 89.4239 272.505 90.2954C271.693 91.1368 270.777 91.7679 269.755 92.1886C268.733 92.6093 267.666 92.8798 266.554 93C265.472 93.1503 264.406 93.2254 263.354 93.2254ZM275.93 103.683C275.059 103.683 274.308 103.368 273.677 102.737C273.076 102.136 272.775 101.414 272.775 100.573C272.775 99.7015 273.076 98.9502 273.677 98.3191C274.308 97.6881 275.059 97.3725 275.93 97.3725C276.772 97.3725 277.493 97.6881 278.094 98.3191C278.695 98.9502 278.996 99.7015 278.996 100.573C278.996 101.414 278.695 102.136 278.094 102.737C277.493 103.368 276.772 103.683 275.93 103.683ZM268.132 103.683C267.261 103.683 266.509 103.368 265.878 102.737C265.277 102.136 264.977 101.414 264.977 100.573C264.977 99.7015 265.277 98.9502 265.878 98.3191C266.509 97.6881 267.261 97.3725 268.132 97.3725C268.973 97.3725 269.695 97.6881 270.296 98.3191C270.897 98.9502 271.197 99.7015 271.197 100.573C271.197 101.414 270.897 102.136 270.296 102.737C269.695 103.368 268.973 103.683 268.132 103.683ZM281.799 93.2254L282.249 86.9145C283.241 86.9145 284.052 86.8394 284.684 86.6892C285.315 86.5088 285.826 86.1332 286.216 85.5622C286.637 84.9612 286.998 84.0747 287.298 82.9026C287.629 81.7006 287.989 80.0778 288.38 78.0343L294.24 79.1161C294.12 79.7773 293.954 80.6037 293.744 81.5954C293.564 82.5871 293.474 83.4436 293.474 84.1648C293.474 84.7358 293.579 85.2316 293.789 85.6524C294.03 86.043 294.42 86.3586 294.961 86.599C295.532 86.8094 296.314 86.9145 297.305 86.9145C298.087 86.9145 298.748 86.8394 299.289 86.6892C299.86 86.5088 300.34 86.1332 300.731 85.5622C301.152 84.9612 301.512 84.0446 301.813 82.8125C302.144 81.5503 302.459 79.8524 302.76 77.7187L308.71 78.6654C308.59 79.3565 308.469 80.0928 308.349 80.8742C308.229 81.6555 308.124 82.3767 308.034 83.0379C307.944 83.699 307.898 84.2399 307.898 84.6607C307.898 85.0513 308.004 85.427 308.214 85.7876C308.454 86.1182 308.875 86.3886 309.476 86.599C310.107 86.8094 310.979 86.9145 312.091 86.9145C313.443 86.9145 314.435 86.629 315.066 86.0581C315.727 85.457 316.057 84.5555 316.057 83.3534C316.057 82.6622 316.042 81.926 316.012 81.1446C315.982 80.3332 315.922 79.4317 315.832 78.44C315.772 77.4182 315.652 76.2612 315.471 74.969L321.286 74.5182C321.497 77.1027 321.737 79.2063 322.008 80.8291C322.278 82.4519 322.639 83.714 323.09 84.6156C323.57 85.4871 324.201 86.0881 324.983 86.4187C325.794 86.7493 326.846 86.9145 328.138 86.9145C329.28 86.9145 330.092 87.2151 330.572 87.8161C331.083 88.3871 331.339 89.1083 331.339 89.9798C331.339 90.9114 331.023 91.6928 330.392 92.3238C329.791 92.9249 328.89 93.2254 327.687 93.2254C326.876 93.2254 326.035 93.1503 325.163 93C324.292 92.8798 323.45 92.6244 322.639 92.2337C321.827 91.813 321.106 91.2119 320.475 90.4306C319.844 89.6492 319.348 88.6125 318.988 87.3202L319.799 87.5907C319.378 89.0933 318.807 90.2503 318.086 91.0617C317.365 91.8731 316.478 92.444 315.426 92.7746C314.375 93.0751 313.112 93.2254 311.64 93.2254C310.288 93.2254 309.085 93.0451 308.034 92.6845C306.982 92.3238 306.14 91.7378 305.509 90.9264C304.908 90.085 304.593 88.9581 304.563 87.5456H306.095C305.494 89.2285 304.803 90.4757 304.022 91.2871C303.24 92.0985 302.294 92.6244 301.182 92.8648C300.07 93.1052 298.673 93.2254 296.99 93.2254C295.968 93.2254 294.961 93.1202 293.97 92.9098C292.978 92.6694 292.091 92.1435 291.31 91.3321C290.529 90.4907 289.958 89.1684 289.597 87.3653L292.031 87.2752C291.4 89.0482 290.574 90.3555 289.552 91.1969C288.56 92.0383 287.418 92.5943 286.126 92.8648C284.834 93.1052 283.391 93.2254 281.799 93.2254ZM304.923 65.3224C304.172 65.3224 303.511 65.0369 302.94 64.466C302.399 63.895 302.129 63.2188 302.129 62.4375C302.129 61.6561 302.399 60.995 302.94 60.4541C303.511 59.9131 304.172 59.6427 304.923 59.6427C305.705 59.6427 306.366 59.9131 306.907 60.4541C307.448 60.995 307.718 61.6561 307.718 62.4375C307.718 63.2188 307.448 63.895 306.907 64.466C306.366 65.0369 305.705 65.3224 304.923 65.3224ZM301.317 71.2727C300.566 71.2727 299.905 70.9872 299.334 70.4162C298.793 69.8452 298.522 69.169 298.522 68.3877C298.522 67.6064 298.793 66.9452 299.334 66.4043C299.905 65.8634 300.566 65.5929 301.317 65.5929C302.098 65.5929 302.76 65.8634 303.301 66.4043C303.841 66.9452 304.112 67.6064 304.112 68.3877C304.112 69.169 303.841 69.8452 303.301 70.4162C302.76 70.9872 302.098 71.2727 301.317 71.2727ZM308.304 71.2727C307.553 71.2727 306.892 70.9872 306.321 70.4162C305.78 69.8452 305.509 69.169 305.509 68.3877C305.509 67.6064 305.78 66.9452 306.321 66.4043C306.892 65.8634 307.553 65.5929 308.304 65.5929C309.085 65.5929 309.747 65.8634 310.288 66.4043C310.828 66.9452 311.099 67.6064 311.099 68.3877C311.099 69.169 310.828 69.8452 310.288 70.4162C309.747 70.9872 309.085 71.2727 308.304 71.2727ZM327.712 93.2254L328.163 86.9145H334.609C335.24 86.9145 335.796 86.8845 336.277 86.8244C336.758 86.7342 337.149 86.599 337.449 86.4187C337.78 86.2384 338.02 86.013 338.17 85.7425C338.321 85.4721 338.396 85.1565 338.396 84.7959C338.396 84.4353 338.2 83.8643 337.81 83.083C337.449 82.2716 336.653 81.2949 335.421 80.1529C334.76 79.5519 334.038 78.9208 333.257 78.2597C332.506 77.5685 331.784 76.9224 331.093 76.3213C330.402 75.6902 329.831 75.1343 329.38 74.6535C328.93 74.1726 328.704 73.827 328.704 73.6167C328.704 73.1659 328.734 72.6701 328.794 72.1291C328.854 71.5882 328.945 71.0923 329.065 70.6416C329.215 70.1908 329.41 69.8602 329.651 69.6499C330.162 69.169 330.913 68.6131 331.905 67.982C332.926 67.3209 334.144 66.6146 335.556 65.8634C336.968 65.082 338.546 64.2706 340.289 63.4292C342.062 62.5577 343.955 61.6862 345.969 60.8147L348.538 66.3141C346.885 67.0354 345.323 67.7416 343.85 68.4328C342.378 69.0939 340.995 69.755 339.703 70.4162C338.441 71.0473 337.269 71.6784 336.187 72.3094C335.135 72.9105 334.204 73.5115 333.392 74.1125L333.978 70.7768C336.533 72.7302 338.561 74.4882 340.064 76.0509C341.596 77.6136 342.738 79.011 343.49 80.2431C344.241 81.4451 344.737 82.527 344.977 83.4887C345.218 84.4203 345.338 85.2467 345.338 85.9679C345.338 86.6892 345.157 87.4705 344.797 88.3119C344.466 89.1233 343.85 89.9047 342.949 90.656C342.077 91.4073 340.845 92.0233 339.252 92.5041C337.66 92.985 335.616 93.2254 333.122 93.2254H327.712ZM350.752 103.368L349.444 97.057C351.578 96.7865 353.441 96.4559 355.034 96.0653C356.627 95.7046 357.964 95.1938 359.046 94.5326C360.128 93.8715 360.939 92.9699 361.48 91.828C362.021 90.656 362.291 89.1534 362.291 87.3202C362.291 85.5472 362.021 84.1348 361.48 83.083C360.939 82.0311 360.218 81.5052 359.316 81.5052C358.685 81.5052 358.159 81.7306 357.739 82.1814C357.318 82.6021 357.002 83.113 356.792 83.714C356.612 84.285 356.522 84.7959 356.522 85.2467C356.522 85.5171 356.597 85.8026 356.747 86.1031C356.897 86.4037 357.228 86.6591 357.739 86.8695C358.25 87.0798 359.046 87.2 360.128 87.2301C361.24 87.2601 362.742 87.155 364.636 86.9145H372.209C373.35 86.9145 374.162 87.2151 374.643 87.8161C375.154 88.3871 375.409 89.1083 375.409 89.9798C375.409 90.9114 375.093 91.6928 374.462 92.3238C373.831 92.9249 372.93 93.2254 371.758 93.2254H359.361C357.468 93.2254 355.845 93 354.493 92.5492C353.141 92.0985 352.104 91.3772 351.383 90.3855C350.661 89.3637 350.301 88.0114 350.301 86.3285C350.301 84.9762 350.526 83.6239 350.977 82.2716C351.458 80.9192 352.119 79.6871 352.96 78.5752C353.802 77.4332 354.779 76.5317 355.89 75.8706C357.032 75.1794 358.265 74.8338 359.587 74.8338C361.39 74.8338 362.968 75.3897 364.32 76.5016C365.672 77.6136 366.724 79.0861 367.475 80.9192C368.257 82.7524 368.647 84.7508 368.647 86.9145C368.647 90.3104 367.926 93.1953 366.484 95.5694C365.041 97.9435 362.983 99.7766 360.308 101.069C357.633 102.391 354.448 103.157 350.752 103.368ZM371.821 93.2254L372.272 86.9145C373.685 86.9145 374.676 86.7793 375.247 86.5088C375.848 86.2083 376.209 85.6674 376.329 84.8861C376.449 84.0747 376.479 82.9026 376.419 81.37L375.698 60.0033H382.099L382.865 81.3249C382.926 82.8275 383.106 83.9845 383.406 84.7959C383.707 85.6073 384.203 86.1632 384.894 86.4638C385.615 86.7643 386.577 86.9145 387.779 86.9145C388.921 86.9145 389.732 87.2151 390.213 87.8161C390.694 88.3871 390.934 89.1083 390.934 89.9798C390.934 90.9114 390.619 91.6928 389.988 92.3238C389.357 92.9249 388.47 93.2254 387.328 93.2254C386.006 93.2254 384.774 93.0751 383.632 92.7746C382.49 92.4741 381.543 91.9031 380.792 91.0617C380.041 90.2202 379.545 89.0031 379.304 87.4104L381.288 87.4555C380.777 89.0182 380.116 90.2202 379.304 91.0617C378.493 91.8731 377.471 92.444 376.239 92.7746C375.037 93.0751 373.564 93.2254 371.821 93.2254ZM387.317 93.2254L387.768 86.9145C388.91 86.9145 389.811 86.8094 390.472 86.599C391.163 86.3886 391.704 85.9679 392.095 85.3368C392.516 84.6757 392.861 83.714 393.132 82.4519C393.432 81.1897 393.733 79.5068 394.033 77.4032L399.939 78.3949C399.878 78.8457 399.788 79.3716 399.668 79.9726C399.578 80.5736 399.488 81.1897 399.398 81.8208C399.338 82.4218 399.307 82.9928 399.307 83.5337C399.307 84.255 399.458 84.871 399.758 85.3819C400.089 85.8627 400.66 86.2384 401.471 86.5088C402.313 86.7793 403.515 86.9145 405.077 86.9145C406.219 86.9145 407.031 87.2151 407.512 87.8161C407.992 88.3871 408.233 89.1083 408.233 89.9798C408.233 90.9114 407.917 91.6928 407.286 92.3238C406.685 92.9249 405.799 93.2254 404.627 93.2254C402.553 93.2254 400.87 93.0301 399.578 92.6394C398.286 92.2487 397.324 91.5876 396.693 90.656C396.062 89.7244 395.656 88.4472 395.476 86.8244H397.64C397.099 88.2669 396.468 89.4239 395.746 90.2954C395.025 91.1368 394.214 91.7679 393.312 92.1886C392.411 92.6093 391.449 92.8798 390.427 93C389.436 93.1503 388.399 93.2254 387.317 93.2254ZM395.341 103.593C394.469 103.593 393.718 103.293 393.087 102.692C392.486 102.091 392.185 101.354 392.185 100.483C392.185 99.6114 392.486 98.845 393.087 98.1839C393.718 97.5528 394.469 97.2373 395.341 97.2373C396.212 97.2373 396.948 97.5528 397.549 98.1839C398.181 98.845 398.496 99.6114 398.496 100.483C398.496 101.354 398.181 102.091 397.549 102.692C396.948 103.293 396.212 103.593 395.341 103.593ZM404.617 93.2254L405.068 86.9145C406.45 86.9145 407.442 86.7793 408.043 86.5088C408.644 86.2083 409.005 85.6674 409.125 84.8861C409.245 84.0747 409.275 82.9026 409.215 81.37L408.404 60.0033H414.76L415.661 81.8208C415.721 83.5638 415.646 85.1415 415.436 86.5539C415.255 87.9363 414.79 89.1233 414.038 90.115C413.317 91.1067 412.19 91.8731 410.658 92.414C409.155 92.9549 407.141 93.2254 404.617 93.2254ZM421.606 93L420.659 60.0033H426.97L427.917 93H421.606ZM442.679 91.7378C442.679 91.0466 442.739 90.2352 442.859 89.3036C442.979 88.372 443.205 87.3202 443.535 86.1482C443.866 84.9462 444.362 83.6089 445.023 82.1363L450.567 84.0747C450.237 85.0063 449.951 85.8627 449.711 86.6441C449.47 87.3954 449.29 88.1016 449.17 88.7627C449.05 89.3938 448.99 90.0249 448.99 90.656C448.99 92.1886 449.32 93.4508 449.981 94.4425C450.672 95.4342 451.634 96.1704 452.866 96.6513C454.098 97.1321 455.526 97.3725 457.149 97.3725C459.312 97.3725 461.025 97.0119 462.287 96.2907C463.55 95.5694 464.466 94.5627 465.037 93.2705C465.608 92.0083 465.954 90.5358 466.074 88.8529C466.224 87.1399 466.269 85.3218 466.209 83.3985L465.353 60.0033H471.709L472.475 82.9928C472.535 84.9462 472.46 86.8995 472.25 88.8529C472.069 90.8062 471.664 92.6544 471.032 94.3974C470.431 96.1404 469.545 97.6881 468.373 99.0404C467.201 100.393 465.683 101.46 463.82 102.241C461.987 103.022 459.718 103.413 457.013 103.413C455.06 103.413 453.212 103.188 451.469 102.737C449.756 102.286 448.238 101.58 446.916 100.618C445.594 99.6865 444.557 98.4844 443.806 97.0119C443.054 95.5394 442.679 93.7813 442.679 91.7378ZM489.208 93.2254C486.413 93.2254 484.25 92.9399 482.717 92.3689C481.214 91.7979 480.163 90.9114 479.562 89.7093C478.961 88.4772 478.615 86.9296 478.525 85.0664L477.578 60.0033H483.889L484.836 82.0462C484.896 83.4285 485.046 84.4653 485.286 85.1565C485.527 85.8477 485.978 86.3135 486.639 86.5539C487.33 86.7943 488.337 86.9145 489.659 86.9145C490.801 86.9145 491.612 87.2151 492.093 87.8161C492.604 88.3871 492.859 89.1083 492.859 89.9798C492.859 90.9114 492.544 91.6928 491.913 92.3238C491.282 92.9249 490.38 93.2254 489.208 93.2254ZM518.75 93.2254C517.368 93.2254 516.076 93.1202 514.873 92.9098C513.701 92.6995 512.62 92.3389 511.628 91.828C510.636 91.2871 509.75 90.5508 508.968 89.6192C508.217 88.6876 507.586 87.5156 507.075 86.1031L510.636 83.2633C511.177 84.2249 511.838 84.9762 512.62 85.5171C513.401 86.028 514.333 86.3886 515.414 86.599C516.496 86.8094 517.758 86.9145 519.201 86.9145C520.343 86.9145 521.154 87.2151 521.635 87.8161C522.116 88.3871 522.356 89.1083 522.356 89.9798C522.356 90.9114 522.041 91.6928 521.41 92.3238C520.809 92.9249 519.922 93.2254 518.75 93.2254ZM489.269 93.2254L489.72 86.9145C491.343 86.9145 492.951 86.8244 494.544 86.6441C496.136 86.4638 497.684 86.1933 499.186 85.8327C500.689 85.4721 502.117 85.0063 503.469 84.4353C504.851 83.8643 506.143 83.1731 507.346 82.3617C506.444 81.8208 505.467 81.355 504.415 80.9643C503.364 80.5736 502.237 80.2882 501.035 80.1078C499.863 79.8975 498.616 79.7923 497.293 79.7923C496.812 79.7923 496.302 79.8073 495.761 79.8374C495.25 79.8674 494.724 79.9275 494.183 80.0177C493.642 80.0778 493.101 80.1679 492.56 80.2882L491.659 74.1125C492.53 73.8721 493.447 73.7068 494.408 73.6167C495.4 73.4965 496.271 73.4364 497.023 73.4364C498.646 73.4364 500.133 73.6167 501.485 73.9773C502.868 74.3379 504.13 74.7887 505.272 75.3296C506.444 75.8706 507.526 76.4115 508.518 76.9524C509.539 77.4933 510.501 77.9441 511.402 78.3047C512.334 78.6654 513.236 78.8457 514.107 78.8457H515.775L516.496 84.841C515.204 84.9011 513.987 85.1565 512.845 85.6073C511.733 86.028 510.621 86.5689 509.509 87.2301C508.427 87.8612 507.255 88.5223 505.993 89.2135C504.761 89.9047 503.364 90.5508 501.801 91.1518C500.238 91.7529 498.435 92.2487 496.392 92.6394C494.348 93.0301 491.974 93.2254 489.269 93.2254ZM502.026 103.368C501.155 103.368 500.404 103.067 499.772 102.466C499.171 101.865 498.871 101.129 498.871 100.257C498.871 99.386 499.171 98.6197 499.772 97.9585C500.404 97.3274 501.155 97.0119 502.026 97.0119C502.898 97.0119 503.634 97.3274 504.235 97.9585C504.866 98.6197 505.182 99.386 505.182 100.257C505.182 101.129 504.866 101.865 504.235 102.466C503.634 103.067 502.898 103.368 502.026 103.368ZM518.763 93.2254L519.214 86.9145C519.905 86.9145 520.491 86.7493 520.972 86.4187C521.483 86.0581 522.009 85.4721 522.55 84.6607C523.091 83.8192 523.722 82.6923 524.443 81.2799C525.345 79.4768 526.276 78.0643 527.238 77.0426C528.23 76.0208 529.236 75.2996 530.258 74.8789C531.31 74.4281 532.362 74.2027 533.414 74.2027C534.736 74.2027 535.968 74.4882 537.11 75.0592C538.252 75.6301 539.244 76.4115 540.085 77.4032C540.927 78.3648 541.573 79.4768 542.023 80.7389C542.504 81.971 542.745 83.2482 542.745 84.5705C542.745 86.1632 542.399 87.6057 541.708 88.8979C541.047 90.1601 540.115 91.1668 538.913 91.9181C537.741 92.6394 536.389 93 534.856 93C533.564 93 532.061 92.7746 530.348 92.3238C528.635 91.8731 526.832 90.9264 524.939 89.484L527.238 84.0296C528.59 84.9612 529.853 85.6373 531.025 86.0581C532.227 86.4788 533.218 86.6892 534 86.6892C534.601 86.6892 535.097 86.629 535.487 86.5088C535.878 86.3886 536.163 86.1933 536.344 85.9228C536.524 85.6524 536.614 85.2918 536.614 84.841C536.614 84.2099 536.464 83.5638 536.163 82.9026C535.863 82.2415 535.457 81.6856 534.946 81.2348C534.465 80.754 533.894 80.5135 533.233 80.5135C532.602 80.5135 532.061 80.754 531.611 81.2348C531.19 81.6856 530.769 82.3467 530.348 83.2182C529.958 84.0596 529.477 85.0513 528.906 86.1933C528.215 87.5757 527.539 88.7327 526.877 89.6643C526.216 90.5658 525.51 91.2871 524.759 91.828C524.038 92.3389 523.181 92.6995 522.189 92.9098C521.228 93.1202 520.086 93.2254 518.763 93.2254Z" fill="url(#paint0_linear_177_211)"/>
<defs>
<linearGradient id="paint0_linear_177_211" x1="157.5" y1="20.5" x2="714.305" y2="265.834" gradientUnits="userSpaceOnUse">
<stop stop-color="white"/>
<stop offset="1" stop-color="white" stop-opacity="0"/>
</linearGradient>
</defs>
</svg>
